<svg xmlns="http://www.w3.org/2000/svg" width="256" height="256" viewBox="0 0 100 100"><rect width="100" height="100" rx="50" fill="#96bf48"></rect><path fill="#fff" d="M50 79.16L50 79.16Q41.90 79.16 36.55 76.85Q31.21 74.54 28.45 70.82Q25.70 67.09 25.54 62.88L25.54 62.88Q25.54 62.23 26.06 61.70Q26.59 61.18 27.32 61.18L27.32 61.18L37.53 61.18Q38.66 61.18 39.27 61.58Q39.88 61.99 40.36 62.64L40.36 62.64Q41.01 63.85 42.18 64.98Q43.36 66.12 45.30 66.81Q47.25 67.50 50 67.50L50 67.50Q54.70 67.50 57.09 66.04Q59.48 64.58 59.48 62.07L59.48 62.07Q59.48 60.21 58.18 59.07Q56.88 57.94 54.01 57.01Q51.13 56.07 46.35 55.10L46.35 55.10Q40.20 53.81 35.87 51.74Q31.53 49.68 29.26 46.31Q27.00 42.95 27.00 37.93L27.00 37.93Q27.00 32.99 29.79 29.10Q32.58 25.21 37.61 23.03Q42.63 20.84 49.51 20.84L49.51 20.84Q55.10 20.84 59.36 22.30Q63.61 23.76 66.52 26.19Q69.44 28.62 70.94 31.33Q72.44 34.04 72.52 36.63L72.52 36.63Q72.52 37.28 72.07 37.81Q71.63 38.34 70.82 38.34L70.82 38.34L60.13 38.34Q59.23 38.34 58.59 38.01Q57.94 37.69 57.45 36.96L57.45 36.96Q56.97 35.18 54.90 33.84Q52.83 32.50 49.51 32.50L49.51 32.50Q45.95 32.50 43.97 33.76Q41.98 35.01 41.98 37.61L41.98 37.61Q41.98 39.23 43.07 40.44Q44.17 41.66 46.72 42.55Q49.27 43.44 53.73 44.41L53.73 44.41Q61.10 45.79 65.63 47.85Q70.17 49.92 72.32 53.20Q74.46 56.48 74.46 61.42L74.46 61.42Q74.46 66.93 71.30 70.90Q68.14 74.87 62.68 77.01Q57.21 79.16 50 79.16Z"></path></svg>